<svg fill="none" xmlns="http://www.w3.org/2000/svg" viewBox="0 0 200 200">
  <defs>
    <linearGradient id="aiGradient" x1="0%" y1="0%" x2="100%" y2="100%">
      <stop offset="0%" style="stop-color:#2E97F7;stop-opacity:1" />
      <stop offset="50%" style="stop-color:#5C3EE8;stop-opacity:1" />
      <stop offset="100%" style="stop-color:#2a9d8f;stop-opacity:1" />
    </linearGradient>
  </defs>
  
  <!-- Brain/Neural Network Structure -->
  <circle cx="100" cy="100" r="80" fill="url(#aiGradient)" opacity="0.1"/>
  
  <!-- Central Node -->
  <circle cx="100" cy="100" r="12" fill="url(#aiGradient)"/>
  
  <!-- Neural Network Nodes -->
  <circle cx="60" cy="70" r="8" fill="#2E97F7"/>
  <circle cx="140" cy="70" r="8" fill="#5C3EE8"/>
  <circle cx="60" cy="130" r="8" fill="#2a9d8f"/>
  <circle cx="140" cy="130" r="8" fill="#2E97F7"/>
  <circle cx="100" cy="50" r="6" fill="#5C3EE8"/>
  <circle cx="100" cy="150" r="6" fill="#2a9d8f"/>
  <circle cx="50" cy="100" r="6" fill="#2E97F7"/>
  <circle cx="150" cy="100" r="6" fill="#5C3EE8"/>
  
  <!-- Connections -->
  <line x1="100" y1="100" x2="60" y2="70" stroke="url(#aiGradient)" stroke-width="2" opacity="0.6"/>
  <line x1="100" y1="100" x2="140" y2="70" stroke="url(#aiGradient)" stroke-width="2" opacity="0.6"/>
  <line x1="100" y1="100" x2="60" y2="130" stroke="url(#aiGradient)" stroke-width="2" opacity="0.6"/>
  <line x1="100" y1="100" x2="140" y2="130" stroke="url(#aiGradient)" stroke-width="2" opacity="0.6"/>
  <line x1="100" y1="100" x2="100" y2="50" stroke="url(#aiGradient)" stroke-width="2" opacity="0.6"/>
  <line x1="100" y1="100" x2="100" y2="150" stroke="url(#aiGradient)" stroke-width="2" opacity="0.6"/>
  <line x1="100" y1="100" x2="50" y2="100" stroke="url(#aiGradient)" stroke-width="2" opacity="0.6"/>
  <line x1="100" y1="100" x2="150" y2="100" stroke="url(#aiGradient)" stroke-width="2" opacity="0.6"/>
  
  <!-- Agent Symbols -->
  <path d="M80 85 L85 90 L80 95 L75 90 Z" fill="#fff" opacity="0.8"/>
  <path d="M120 85 L125 90 L120 95 L115 90 Z" fill="#fff" opacity="0.8"/>
  <path d="M95 105 L100 110 L95 115 L90 110 Z" fill="#fff" opacity="0.8"/>
  <path d="M105 105 L110 110 L105 115 L100 110 Z" fill="#fff" opacity="0.8"/>
</svg>